<?xml version="1.0" encoding="UTF-8"?>
<svg xmlns="http://www.w3.org/2000/svg" viewBox="0 0 450 500" height="500" width="450"><title>JSP 2.0 JSPX</title><g id="testContent"><text text-anchor="middle" font-size="15" y="10%" x="50%" class="title">
            JSP 2.0 XML Syntax (.jspx) Demo</text><text text-anchor="middle" font-size="15" y="15%" x="50%" class="title">
            Try changing the name parameter!</text><g id="rotatedText" transform="translate(225, 250)" opacity="1.0">
          <g opacity="0.95" transform="scale(1.05) rotate(15)">
        <text id="words" font-family="Serif" font-size="40" text-anchor="middle" fill="DarkSlateBlue" transform="scale(1.6, 1.6)" y="0" x="0">JSPX</text>
          <g opacity="0.95" transform="scale(1.05) rotate(15)">
        <text id="words" font-family="Serif" font-size="40" text-anchor="middle" fill="DarkSlateBlue" transform="scale(1.6, 1.6)" y="0" x="0">JSPX</text>
          <g opacity="0.95" transform="scale(1.05) rotate(15)">
        <text id="words" font-family="Serif" font-size="40" text-anchor="middle" fill="DarkSlateBlue" transform="scale(1.6, 1.6)" y="0" x="0">JSPX</text>
          <g opacity="0.95" transform="scale(1.05) rotate(15)">
        <text id="words" font-family="Serif" font-size="40" text-anchor="middle" fill="DarkSlateBlue" transform="scale(1.6, 1.6)" y="0" x="0">JSPX</text>
          <g opacity="0.95" transform="scale(1.05) rotate(15)">
        <text id="words" font-family="Serif" font-size="40" text-anchor="middle" fill="DarkSlateBlue" transform="scale(1.6, 1.6)" y="0" x="0">JSPX</text>
          <g opacity="0.95" transform="scale(1.05) rotate(15)">
        <text id="words" font-family="Serif" font-size="40" text-anchor="middle" fill="DarkSlateBlue" transform="scale(1.6, 1.6)" y="0" x="0">JSPX</text>
          <g opacity="0.95" transform="scale(1.05) rotate(15)">
        <text id="words" font-family="Serif" font-size="40" text-anchor="middle" fill="DarkSlateBlue" transform="scale(1.6, 1.6)" y="0" x="0">JSPX</text>
          <g opacity="0.95" transform="scale(1.05) rotate(15)">
        <text id="words" font-family="Serif" font-size="40" text-anchor="middle" fill="DarkSlateBlue" transform="scale(1.6, 1.6)" y="0" x="0">JSPX</text>
          <g opacity="0.95" transform="scale(1.05) rotate(15)">
        <text id="words" font-family="Serif" font-size="40" text-anchor="middle" fill="DarkSlateBlue" transform="scale(1.6, 1.6)" y="0" x="0">JSPX</text>
          <g opacity="0.95" transform="scale(1.05) rotate(15)">
        <text id="words" font-family="Serif" font-size="40" text-anchor="middle" fill="DarkSlateBlue" transform="scale(1.6, 1.6)" y="0" x="0">JSPX</text>
          <g opacity="0.95" transform="scale(1.05) rotate(15)">
        <text id="words" font-family="Serif" font-size="40" text-anchor="middle" fill="DarkSlateBlue" transform="scale(1.6, 1.6)" y="0" x="0">JSPX</text>
          <g opacity="0.95" transform="scale(1.05) rotate(15)">
        <text id="words" font-family="Serif" font-size="40" text-anchor="middle" fill="DarkSlateBlue" transform="scale(1.6, 1.6)" y="0" x="0">JSPX</text>
          <g opacity="0.95" transform="scale(1.05) rotate(15)">
        <text id="words" font-family="Serif" font-size="40" text-anchor="middle" fill="DarkSlateBlue" transform="scale(1.6, 1.6)" y="0" x="0">JSPX</text>
          <g opacity="0.95" transform="scale(1.05) rotate(15)">
        <text id="words" font-family="Serif" font-size="40" text-anchor="middle" fill="DarkSlateBlue" transform="scale(1.6, 1.6)" y="0" x="0">JSPX</text>
          <g opacity="0.95" transform="scale(1.05) rotate(15)">
        <text id="words" font-family="Serif" font-size="40" text-anchor="middle" fill="DarkSlateBlue" transform="scale(1.6, 1.6)" y="0" x="0">JSPX</text>
          <g opacity="0.95" transform="scale(1.05) rotate(15)">
        <text id="words" font-family="Serif" font-size="40" text-anchor="middle" fill="DarkSlateBlue" transform="scale(1.6, 1.6)" y="0" x="0">JSPX</text>
          <g opacity="0.95" transform="scale(1.05) rotate(15)">
        <text id="words" font-family="Serif" font-size="40" text-anchor="middle" fill="DarkSlateBlue" transform="scale(1.6, 1.6)" y="0" x="0">JSPX</text>
          <g opacity="0.95" transform="scale(1.05) rotate(15)">
        <text id="words" font-family="Serif" font-size="40" text-anchor="middle" fill="DarkSlateBlue" transform="scale(1.6, 1.6)" y="0" x="0">JSPX</text>
          <g opacity="0.95" transform="scale(1.05) rotate(15)">
        <text id="words" font-family="Serif" font-size="40" text-anchor="middle" fill="DarkSlateBlue" transform="scale(1.6, 1.6)" y="0" x="0">JSPX</text>
          <g opacity="0.95" transform="scale(1.05) rotate(15)">
        <text id="words" font-family="Serif" font-size="40" text-anchor="middle" fill="DarkSlateBlue" transform="scale(1.6, 1.6)" y="0" x="0">JSPX</text>
          <g opacity="0.95" transform="scale(1.05) rotate(15)">
        <text id="words" font-family="Serif" font-size="40" text-anchor="middle" fill="DarkSlateBlue" transform="scale(1.6, 1.6)" y="0" x="0">JSPX</text>
          <g opacity="0.95" transform="scale(1.05) rotate(15)">
        <text id="words" font-family="Serif" font-size="40" text-anchor="middle" fill="DarkSlateBlue" transform="scale(1.6, 1.6)" y="0" x="0">JSPX</text>
          <g opacity="0.95" transform="scale(1.05) rotate(15)">
        <text id="words" font-family="Serif" font-size="40" text-anchor="middle" fill="DarkSlateBlue" transform="scale(1.6, 1.6)" y="0" x="0">JSPX</text>
          <g opacity="0.95" transform="scale(1.05) rotate(15)">
        <text id="words" font-family="Serif" font-size="40" text-anchor="middle" fill="DarkSlateBlue" transform="scale(1.6, 1.6)" y="0" x="0">JSPX</text></g></g></g></g></g></g></g></g></g></g></g></g></g></g></g></g></g></g></g></g></g></g></g></g><text text-anchor="middle" style="font-size:75;font-family:Serif;fill:white">JSPX</text></g></g></svg>